<svg xmlns="http://www.w3.org/2000/svg" width="579" height="579" viewBox="0 0 579 579" version="1.1">
	<path d="M 264.500 29.020 C 231.164 32.716, 201.266 41.363, 172.902 55.512 C 148.831 67.519, 128.364 81.995, 108.808 100.847 C 93.499 115.604, 83.167 127.925, 71.783 145 C 16.001 228.664, 13.663 338.411, 65.831 424.365 C 107.543 493.090, 176.150 537.684, 257 548.621 C 273.832 550.898, 305.168 550.898, 322 548.621 C 398.201 538.312, 463.716 498.005, 505.864 435.500 C 529.014 401.168, 542.491 365.888, 548.646 323.500 C 550.954 307.603, 551.005 271.227, 548.740 255.466 C 542.838 214.381, 529.130 177.995, 507.038 144.767 C 465.557 82.379, 401.024 41.709, 325.545 30.386 C 313.640 28.601, 275.899 27.755, 264.500 29.020 M 224.500 173.480 C 214.492 175.339, 207.245 178.346, 199.259 183.955 C 184.489 194.327, 175.919 208.228, 172.990 226.564 C 172.192 231.557, 172.223 233.564, 173.113 234.637 C 174.129 235.860, 188.407 236.019, 272.899 235.744 C 361.952 235.455, 372.033 235.261, 377 233.738 C 397.027 227.601, 412.781 213.447, 419.523 195.534 C 422.953 186.421, 424.684 175.529, 423.020 173.524 C 421.902 172.177, 410.711 172.010, 326.628 172.090 C 253.159 172.160, 229.906 172.476, 224.500 173.480 M 227.781 266.940 C 202.444 270.437, 181.978 287.763, 175.149 311.500 C 172.190 321.787, 171.612 327.433, 173.370 328.892 C 174.471 329.806, 190.877 330.021, 242.158 329.796 L 309.500 329.500 317.490 326.676 C 321.885 325.123, 328.011 322.316, 331.102 320.438 C 338.492 315.949, 349.672 304.050, 353.775 296.307 C 358.734 286.948, 362.759 269.154, 360.250 267.676 C 358.840 266.845, 233.514 266.149, 227.781 266.940 M 195.500 361.336 C 189.156 363.442, 185.803 365.527, 181.298 370.170 C 173 378.720, 170.411 389.409, 173.875 400.813 C 176.650 409.951, 182.467 416.590, 191.088 420.459 C 196.612 422.938, 198.150 423.190, 205.401 422.810 C 218.556 422.119, 227.280 416.182, 232.775 404.180 C 239.502 389.487, 232.559 370.824, 217.654 363.532 C 211.242 360.395, 201.304 359.410, 195.500 361.336" stroke="none" fill="black" fill-rule="evenodd"/>
</svg>